<svg xmlns="http://www.w3.org/2000/svg" viewBox="0 0 278 80" fill="#F2EDDF">
  <path fill-rule="evenodd" d="M13.4 18.4 L56.6 18.4 L56.6 61.6 L13.4 61.6 Z M26 28 L26 52 L30.2 52 L30.2 42.4 L39.8 42.4 L39.8 52 L44 52 L44 28 L39.8 28 L39.8 37.6 L30.2 37.6 L30.2 28 Z"/>
  <path d="M71.26 55.28 88.16 10.16H93.58L76.69 55.28Z M100.83 50V14.96H106.02V23.6L105.97 28.64Q106.35 26.05 108.2 24.58Q110.05 23.12 113.02 23.12Q116.96 23.12 119.31 25.64Q121.66 28.16 121.66 32.43V50H116.48V33.15Q116.48 30.46 115.09 29Q113.7 27.54 111.3 27.54Q108.85 27.54 107.43 29.07Q106.02 30.61 106.02 33.34V50Z M140 50.48Q135.15 50.48 132.22 47.65Q129.3 44.82 129.3 39.92V33.68Q129.3 28.78 132.22 25.95Q135.15 23.12 140 23.12Q143.26 23.12 145.66 24.39Q148.06 25.66 149.38 27.97Q150.7 30.27 150.7 33.34V38.1H134.29V40.26Q134.29 43.04 135.82 44.58Q137.36 46.11 140 46.11Q142.16 46.11 143.6 45.32Q145.04 44.53 145.33 43.14H150.46Q149.94 46.5 147.08 48.49Q144.22 50.48 140 50.48ZM134.29 33.34V34.45H145.71V33.3Q145.71 30.37 144.22 28.78Q142.74 27.2 140 27.2Q137.26 27.2 135.78 28.81Q134.29 30.42 134.29 33.34Z M159.39 50V23.6H164.53V28.78Q164.91 26.14 166.78 24.63Q168.66 23.12 171.73 23.12Q175.81 23.12 178.06 25.66Q180.32 28.21 180.32 32.82V35.17H175.14V32.96Q175.14 27.63 169.9 27.63Q167.31 27.63 165.94 29.14Q164.58 30.66 164.58 33.54V50Z M185.74 50V23.6H190.16V27.3H190.26Q190.45 25.42 191.65 24.27Q192.85 23.12 194.67 23.12Q196.4 23.12 197.62 24.2Q198.85 25.28 199.33 27.1Q199.62 25.28 200.82 24.2Q202.02 23.12 203.89 23.12Q206.34 23.12 207.9 25.02Q209.46 26.91 209.46 29.89V50H204.75V30.13Q204.75 28.69 204.08 27.85Q203.41 27.01 202.21 27.01Q201.01 27.01 200.36 27.82Q199.71 28.64 199.71 30.08V50H195.49V30.13Q195.49 28.69 194.84 27.85Q194.19 27.01 192.99 27.01Q191.79 27.01 191.12 27.82Q190.45 28.64 190.45 30.08V50Z M223.76 50.48Q219.73 50.48 217.35 48.2Q214.98 45.92 214.98 42.22Q214.98 38.48 217.52 36.2Q220.06 33.92 224.29 33.92H231.58V32Q231.58 27.44 226.45 27.44Q224.14 27.44 222.75 28.3Q221.36 29.17 221.26 30.7H216.18Q216.42 27.39 219.15 25.26Q221.89 23.12 226.5 23.12Q231.39 23.12 234.08 25.45Q236.77 27.78 236.77 31.95V50H231.68V45.06H231.63Q231.3 47.6 229.23 49.04Q227.17 50.48 223.76 50.48ZM225.25 46.21Q228.18 46.21 229.88 44.79Q231.58 43.38 231.58 40.98V37.57H224.67Q222.61 37.57 221.38 38.77Q220.16 39.97 220.16 41.84Q220.16 43.86 221.5 45.03Q222.85 46.21 225.25 46.21Z M244.69 50V45.3H253.86V28.3H245.65V23.6H259.04V45.3H267.54V50ZM256.02 19.04Q254.34 19.04 253.33 18.15Q252.32 17.26 252.32 15.78Q252.32 14.24 253.33 13.35Q254.34 12.46 256.02 12.46Q257.7 12.46 258.7 13.35Q259.71 14.24 259.71 15.78Q259.71 17.26 258.7 18.15Q257.7 19.04 256.02 19.04Z"/>
</svg>
