<svg xmlns="http://www.w3.org/2000/svg" viewBox="0 0 208 57" fill="#0A1410">
  <path d="M6 51.12 22.9 6H28.32L11.42 51.12Z M35.57 45.84V10.8H40.75V19.44L40.7 24.48Q41.09 21.89 42.94 20.42Q44.78 18.96 47.76 18.96Q51.7 18.96 54.05 21.48Q56.4 24 56.4 28.27V45.84H51.22V28.99Q51.22 26.3 49.82 24.84Q48.43 23.38 46.03 23.38Q43.58 23.38 42.17 24.91Q40.75 26.45 40.75 29.18V45.84Z M74.74 46.32Q69.89 46.32 66.96 43.49Q64.03 40.66 64.03 35.76V29.52Q64.03 24.62 66.96 21.79Q69.89 18.96 74.74 18.96Q78 18.96 80.4 20.23Q82.8 21.5 84.12 23.81Q85.44 26.11 85.44 29.18V33.94H69.02V36.1Q69.02 38.88 70.56 40.42Q72.1 41.95 74.74 41.95Q76.9 41.95 78.34 41.16Q79.78 40.37 80.06 38.98H85.2Q84.67 42.34 81.82 44.33Q78.96 46.32 74.74 46.32ZM69.02 29.18V30.29H80.45V29.14Q80.45 26.21 78.96 24.62Q77.47 23.04 74.74 23.04Q72 23.04 70.51 24.65Q69.02 26.26 69.02 29.18Z M94.13 45.84V19.44H99.26V24.62Q99.65 21.98 101.52 20.47Q103.39 18.96 106.46 18.96Q110.54 18.96 112.8 21.5Q115.06 24.05 115.06 28.66V31.01H109.87V28.8Q109.87 23.47 104.64 23.47Q102.05 23.47 100.68 24.98Q99.31 26.5 99.31 29.38V45.84Z M120.48 45.84V19.44H124.9V23.14H124.99Q125.18 21.26 126.38 20.11Q127.58 18.96 129.41 18.96Q131.14 18.96 132.36 20.04Q133.58 21.12 134.06 22.94Q134.35 21.12 135.55 20.04Q136.75 18.96 138.62 18.96Q141.07 18.96 142.63 20.86Q144.19 22.75 144.19 25.73V45.84H139.49V25.97Q139.49 24.53 138.82 23.69Q138.14 22.85 136.94 22.85Q135.74 22.85 135.1 23.66Q134.45 24.48 134.45 25.92V45.84H130.22V25.97Q130.22 24.53 129.58 23.69Q128.93 22.85 127.73 22.85Q126.53 22.85 125.86 23.66Q125.18 24.48 125.18 25.92V45.84Z M158.5 46.32Q154.46 46.32 152.09 44.04Q149.71 41.76 149.71 38.06Q149.71 34.32 152.26 32.04Q154.8 29.76 159.02 29.76H166.32V27.84Q166.32 23.28 161.18 23.28Q158.88 23.28 157.49 24.14Q156.1 25.01 156 26.54H150.91Q151.15 23.23 153.89 21.1Q156.62 18.96 161.23 18.96Q166.13 18.96 168.82 21.29Q171.5 23.62 171.5 27.79V45.84H166.42V40.9H166.37Q166.03 43.44 163.97 44.88Q161.9 46.32 158.5 46.32ZM159.98 42.05Q162.91 42.05 164.62 40.63Q166.32 39.22 166.32 36.82V33.41H159.41Q157.34 33.41 156.12 34.61Q154.9 35.81 154.9 37.68Q154.9 39.7 156.24 40.87Q157.58 42.05 159.98 42.05Z M179.42 45.84V41.14H188.59V24.14H180.38V19.44H193.78V41.14H202.27V45.84ZM190.75 14.88Q189.07 14.88 188.06 13.99Q187.06 13.1 187.06 11.62Q187.06 10.08 188.06 9.19Q189.07 8.3 190.75 8.3Q192.43 8.3 193.44 9.19Q194.45 10.08 194.45 11.62Q194.45 13.1 193.44 13.99Q192.43 14.88 190.75 14.88Z"/>
</svg>
